<svg xmlns="http://www.w3.org/2000/svg" xmlns:xlink="http://www.w3.org/1999/xlink" x="0px" y="0px" width="83px" height="17px" viewBox="0 0 83 17" style="enable-background:new 0 0 83 17;" xml:space="preserve">
<g>
	<path d="M2.2,1.8v13H11v2H0v-15H2.2z"></path>
	<path d="M17.9,17c-1,0-1.9-0.3-2.7-0.8c-0.8-0.5-1.5-1.2-1.9-2.1c-0.5-0.9-0.7-1.9-0.7-3.1c0-1.2,0.2-2.2,0.7-3.1
		c0.5-0.9,1.1-1.6,2-2.1C16.1,5.3,17,5,18.1,5c1.1,0,2,0.3,2.7,0.8c0.6,0.5,1.1,1.3,1.4,2.2c0.3,0.9,0.4,1.9,0.4,3
		c0,0.6-0.1,1.3-0.2,2c-0.2,0.7-0.4,1.3-0.7,2c-0.3,0.6-0.8,1.1-1.4,1.5C19.5,16.8,18.8,17,17.9,17z M18.5,15c0.8,0,1.5-0.2,2.1-0.5
		c0.6-0.4,1-0.8,1.3-1.5c0.3-0.6,0.4-1.3,0.4-2.1c0-0.8-0.1-1.5-0.4-2.1c-0.3-0.6-0.7-1.1-1.3-1.4c-0.6-0.3-1.2-0.5-2.1-0.5
		c-1.2,0-2.1,0.4-2.8,1.1c-0.7,0.8-1,1.7-1,2.9c0,0.8,0.2,1.5,0.5,2.1c0.3,0.6,0.8,1.1,1.3,1.4C17.1,14.9,17.8,15,18.5,15z
		 M22.3,5.2h2.2v11.5h-2c-0.1-0.6-0.1-1.1-0.1-1.5c0-0.4,0-0.8,0-1.1V5.2z"></path>
	<path d="M36.1,11.3l0,0.7c0,0.2-0.1,0.5-0.2,0.9c-0.1,0.4-0.2,0.8-0.4,1.3c-0.2,0.5-0.5,0.9-0.8,1.3c-0.3,0.4-0.7,0.8-1.2,1.1
		c-0.5,0.3-1.1,0.4-1.9,0.4c-0.5,0-1-0.1-1.5-0.2c-0.5-0.1-1-0.4-1.4-0.7c-0.4-0.3-0.8-0.8-1-1.3c-0.3-0.6-0.4-1.3-0.4-2.1V5.2h2.2
		v6.9c0,0.7,0.1,1.3,0.3,1.7c0.2,0.4,0.5,0.7,1,0.9c0.4,0.2,0.9,0.3,1.4,0.3c0.8,0,1.5-0.2,2-0.6c0.5-0.4,1-0.9,1.3-1.4
		C35.9,12.4,36.1,11.9,36.1,11.3z M38.2,16.7H36V5.2h2.2V16.7z"></path>
	<path d="M41.1,5.2h2.2v11.5h-2.2V5.2z M47.2,7.2c-0.8,0-1.5,0.2-2,0.6s-1,0.8-1.3,1.3c-0.3,0.5-0.5,1-0.7,1.6l0-1.3
		c0-0.2,0.1-0.4,0.1-0.7c0.1-0.3,0.2-0.7,0.4-1.1c0.2-0.4,0.4-0.8,0.7-1.2c0.3-0.4,0.7-0.7,1.1-0.9C46,5.1,46.6,5,47.2,5V7.2z"></path>
	<path d="M51.9,0.5v2.4h-2.8V0.5H51.9z M49.4,5.2h2.2v11.5h-2.2V5.2z"></path>
	<path d="M53.9,5.2h7.4v1.9h-7.4V5.2z M56.5,2.2h2.2v14.5h-2.2V2.2z"></path>
	<path d="M62.9,13h2c0.1,0.6,0.4,1.1,0.8,1.5c0.5,0.4,1.1,0.6,2,0.6c0.5,0,1-0.1,1.3-0.2c0.3-0.1,0.5-0.3,0.7-0.5
		c0.1-0.2,0.2-0.5,0.2-0.8c0-0.3-0.1-0.6-0.3-0.8c-0.2-0.2-0.4-0.4-0.8-0.5c-0.3-0.1-0.7-0.2-1.2-0.4c-0.5-0.1-1-0.3-1.5-0.5
		c-0.5-0.2-1-0.4-1.4-0.7c-0.4-0.3-0.8-0.6-1-1c-0.3-0.4-0.4-0.9-0.4-1.4c0-0.5,0.1-0.9,0.3-1.4c0.2-0.4,0.5-0.8,0.9-1.1
		c0.4-0.3,0.8-0.5,1.4-0.7C66.5,5.1,67,5,67.7,5c0.9,0,1.6,0.2,2.2,0.5c0.6,0.3,1.1,0.8,1.4,1.3s0.5,1.2,0.5,2h-1.9
		c-0.1-0.7-0.3-1.1-0.7-1.4c-0.3-0.3-0.8-0.4-1.5-0.4c-0.7,0-1.2,0.1-1.5,0.4c-0.4,0.3-0.5,0.6-0.5,1.1c0,0.3,0.1,0.6,0.4,0.8
		s0.6,0.4,1,0.5c0.4,0.2,0.9,0.3,1.4,0.5c0.5,0.2,1,0.3,1.4,0.5c0.5,0.2,0.9,0.4,1.2,0.6c0.4,0.2,0.6,0.6,0.8,0.9
		c0.2,0.4,0.3,0.8,0.3,1.4c0,0.7-0.2,1.3-0.5,1.8c-0.3,0.5-0.8,0.9-1.5,1.2c-0.6,0.3-1.4,0.4-2.3,0.4c-0.8,0-1.5-0.1-2.1-0.3
		c-0.6-0.2-1.1-0.5-1.5-0.8c-0.4-0.3-0.7-0.7-0.9-1c-0.2-0.4-0.4-0.7-0.4-1C62.9,13.5,62.9,13.2,62.9,13z"></path>
</g>
<g>
	<path d="M78.5,7.9c-0.9,0-1.6-0.2-2.3-0.5C75.5,7,75,6.5,74.6,5.9S74,4.7,74,3.9c0-0.8,0.2-1.4,0.6-2c0.4-0.6,0.9-1.1,1.6-1.4
		C76.9,0.2,77.6,0,78.5,0s1.6,0.2,2.3,0.5c0.7,0.3,1.2,0.8,1.6,1.4c0.4,0.6,0.6,1.3,0.6,2c0,0.8-0.2,1.4-0.6,2
		C82,6.5,81.5,7,80.8,7.3C80.2,7.7,79.4,7.9,78.5,7.9z M78.5,6.9c0.5,0,1-0.1,1.4-0.2C80.3,6.5,80.7,6.3,81,6
		c0.3-0.3,0.5-0.6,0.7-0.9C81.9,4.7,82,4.3,82,3.9c0-0.4-0.1-0.8-0.2-1.2c-0.2-0.4-0.4-0.7-0.7-0.9c-0.3-0.3-0.7-0.5-1.1-0.6
		C79.5,1.1,79,1,78.5,1c-0.5,0-1,0.1-1.4,0.2c-0.4,0.1-0.8,0.3-1.1,0.6c-0.3,0.3-0.5,0.6-0.7,0.9c-0.2,0.4-0.2,0.7-0.2,1.2
		c0,0.4,0.1,0.8,0.2,1.2C75.5,5.5,75.7,5.8,76,6c0.3,0.3,0.7,0.5,1.1,0.6C77.5,6.8,78,6.9,78.5,6.9z M77,5.7V2h1.9
		c0.5,0,0.9,0.1,1.2,0.3c0.2,0.2,0.4,0.5,0.4,0.8c0,0.3-0.1,0.5-0.2,0.7c-0.1,0.2-0.3,0.3-0.6,0.3c0.2,0,0.4,0.1,0.5,0.1
		c0.1,0.1,0.2,0.2,0.2,0.3c0,0.1,0.1,0.2,0.1,0.4v0.7h-1V5c0-0.1,0-0.2,0-0.2c0-0.1-0.1-0.1-0.2-0.1c-0.1,0-0.2,0-0.4,0h-0.8v1.1H77
		z M77.9,3.7h1c0.2,0,0.3,0,0.4-0.1c0.1-0.1,0.1-0.2,0.1-0.3c0-0.1,0-0.2-0.1-0.3c-0.1-0.1-0.2-0.1-0.4-0.1h-1V3.7z"></path>
</g>
</svg>