<svg width="186" height="15" viewBox="0 0 186 15" fill="none" xmlns="http://www.w3.org/2000/svg">
<g clip-path="url(#clip0_28_6993)">
<path d="M8.41965 13.7928H10.6547V0.364274H8.41965V5.63884H2.31877V0.364274H0V13.7928H2.31877V7.64457H8.41238L8.41965 13.7928ZM23.7956 9.42459H19.7005L21.6771 3.10166L23.7956 9.42459ZM25.3281 13.8656H27.5996L23.0931 0.397034H20.312L15.8274 13.8656H18.1971L19.0016 11.3502H24.4618L25.3281 13.8656ZM42.1893 12.5842C42.6488 12.1027 43.0088 11.5352 43.2487 10.9144C43.4886 10.2935 43.6036 9.63135 43.5871 8.96594V0.335147H41.3521V8.5546C41.3687 9.36757 41.1432 10.1671 40.7041 10.8515C40.4641 11.2323 40.1283 11.5433 39.7303 11.7534C39.3323 11.9636 38.8861 12.0656 38.4363 12.0491C38.0191 12.0542 37.6061 11.9652 37.2279 11.7888C36.8498 11.6123 36.5163 11.3529 36.2522 11.0299C35.658 10.3443 35.3413 9.46156 35.364 8.5546V0.335147H33.1108V8.94773C33.0878 9.63907 33.2105 10.3275 33.4707 10.9684C33.731 11.6093 34.123 12.1883 34.6214 12.668C35.1284 13.1524 35.727 13.5307 36.382 13.7807C37.0371 14.0307 37.7355 14.1475 38.4363 14.124C39.1366 14.1456 39.8335 14.0178 40.4805 13.7491C41.1276 13.4805 41.7101 13.0772 42.1893 12.566V12.5842ZM52.3162 4.0117C52.3079 3.75462 52.3572 3.49896 52.4605 3.2634C52.5638 3.02785 52.7185 2.81837 52.9132 2.65029C53.3986 2.27201 54.0063 2.08544 54.6204 2.1261C56.108 2.21104 57.16 2.73643 57.7764 3.70228L59.5965 2.34815C59.065 1.42355 58.121 0.779245 56.7644 0.415231C56.1526 0.24763 55.5237 0.14994 54.8898 0.124023C53.4337 0.124023 52.2676 0.488038 51.3916 1.21607C50.9648 1.56794 50.6256 2.01415 50.4007 2.51951C50.1758 3.02487 50.0714 3.57558 50.0957 4.12818C50.0864 4.98147 50.3893 5.80874 50.9475 6.45424C51.5389 7.17076 52.359 7.66178 53.2699 7.84477L56 8.42719C57.1018 8.66987 57.6526 9.25715 57.6526 10.189C57.6526 11.4024 56.7487 12.0091 54.9407 12.0091C53.7104 12.0091 52.52 11.383 51.3552 10.1271L49.6334 11.5832C50.3319 12.3876 51.1675 13.0617 52.1014 13.5744C52.9965 13.9605 53.9665 14.1421 54.9407 14.1058C56.2415 14.1653 57.5144 13.7162 58.4899 12.8536C58.93 12.4506 59.2781 11.9575 59.5106 11.4079C59.743 10.8582 59.8542 10.265 59.8367 9.66849C59.8494 8.86642 59.564 8.08818 59.0359 7.4844C58.5185 6.89991 57.8222 6.50312 57.0556 6.35595L54.1217 5.72257C52.9168 5.46048 52.3016 4.90353 52.3016 4.05902L52.3162 4.0117ZM66.2143 13.8401H75.0853V11.7652H68.6022V7.89937H74.2117V5.89729H68.4821V2.31539H74.6922V0.313307H66.2288L66.2143 13.8401ZM86.3515 6.5598H83.6906V2.41731H86.4061C86.9992 2.39112 87.5807 2.58713 88.0369 2.96698C88.2481 3.16243 88.4134 3.40216 88.521 3.66899C88.6286 3.93582 88.6759 4.22315 88.6594 4.51039C88.6594 5.84754 87.8913 6.5149 86.3552 6.51247L86.3515 6.5598ZM91.2002 13.7928L88.4191 8.24154C88.9054 8.11507 89.3503 7.86384 89.7098 7.5127C90.0692 7.16157 90.3307 6.72268 90.4685 6.23946C90.6367 5.73612 90.7335 5.2117 90.7561 4.68148C90.8026 3.58866 90.4243 2.52027 89.7005 1.7002C88.8924 0.845981 87.7494 0.417657 86.2715 0.415231H81.4701V13.7928H83.7051V8.5364H86.1113L88.8414 13.7928H91.2002ZM104.512 10.3455C104.277 10.6045 103.969 10.785 103.628 10.8625C103.472 10.9071 103.312 10.9376 103.151 10.9535C102.889 10.9466 102.631 10.8844 102.394 10.7708C102.158 10.6573 101.948 10.495 101.778 10.2946C101.393 9.92247 101.17 9.41394 101.156 8.87857C101.158 8.51659 101.265 8.16298 101.464 7.8606C101.663 7.55822 101.946 7.32006 102.277 7.17498L104.512 10.3455ZM103.784 4.52131C103.537 4.76979 103.232 4.9525 102.896 5.05278C102.607 4.72024 102.444 4.296 102.437 3.85517C102.437 3.08346 102.772 2.69761 103.442 2.69761C104.003 2.69761 104.283 3.01066 104.283 3.62949C104.266 3.80462 104.213 3.97437 104.127 4.12792C104.042 4.28146 103.925 4.41544 103.784 4.52131ZM107.592 12.7153C107.963 12.7175 108.332 12.6573 108.684 12.5369L108.48 10.8333L107.77 10.9243C107.631 10.9251 107.492 10.8978 107.363 10.844C107.235 10.7902 107.118 10.7111 107.02 10.6113C107.824 9.51439 108.236 8.46723 108.258 7.46983H106.398C106.365 7.86479 106.265 8.2513 106.103 8.61285C106.039 8.75333 105.959 8.88638 105.866 9.00962L104.021 6.50884C104.578 6.27365 105.06 5.88861 105.412 5.39642C105.764 4.90424 105.973 4.32416 106.016 3.72049C106.02 3.35907 105.952 3.00046 105.814 2.66625C105.676 2.33204 105.472 2.02913 105.215 1.77576C104.957 1.5224 104.65 1.32382 104.314 1.19197C103.977 1.06013 103.618 0.997743 103.256 1.00858C102.895 1.01122 102.539 1.09235 102.212 1.24634C101.885 1.40033 101.596 1.6235 101.364 1.90042C100.886 2.39986 100.617 3.06234 100.61 3.75325C100.643 4.67421 100.883 5.35492 101.338 5.80265C100.936 5.9934 100.577 6.26415 100.282 6.59836C99.9882 6.93257 99.7653 7.32323 99.6272 7.74649C99.493 8.14403 99.4134 8.55793 99.3905 8.97686C99.4291 9.9654 99.8428 10.9021 100.547 11.5966C101.252 12.291 102.195 12.6911 103.184 12.7153C103.56 12.7308 103.938 12.6953 104.305 12.6097C104.788 12.4345 105.249 12.2023 105.677 11.9181C105.926 12.1651 106.211 12.3736 106.522 12.5369C106.869 12.6721 107.241 12.7329 107.614 12.7153H107.592ZM127.904 13.8656L130.991 0.353354H128.632L126.499 9.24258L124.333 0.353354H121.716L119.684 9.24258L117.398 0.353354H115.007L118.283 13.8656H120.831L123.048 3.91342L125.356 13.8656H127.904ZM136.527 13.8656H138.864V0.349711H136.527V13.8656ZM150.633 6.53068H147.961V2.41731H150.677C151.268 2.39204 151.848 2.58799 152.304 2.96698C152.515 3.16243 152.68 3.40216 152.788 3.66899C152.895 3.93582 152.943 4.22315 152.926 4.51039C152.926 5.84754 152.158 6.5149 150.622 6.51247L150.633 6.53068ZM155.467 13.7928L152.69 8.24154C153.174 8.11222 153.617 7.85997 153.975 7.50922C154.334 7.15846 154.596 6.72108 154.735 6.23946C154.905 5.73632 155.003 5.21187 155.027 4.68148C155.074 3.58794 154.694 2.51893 153.967 1.7002C153.159 0.845981 152.016 0.417657 150.538 0.415231H145.741V13.7928H147.976V8.5364H150.382L153.112 13.7928H155.467ZM165.659 2.48647H169.329V0.433438H159.73V2.48647H163.413V13.7928H165.648L165.659 2.48647ZM182.946 13.8656H185.181V0.418874H182.946V5.69709H176.856V0.418874H174.534V13.8656H176.856V7.69917H182.946V13.8656Z" fill="#231F20"/>
</g>
<defs>
<clipPath id="clip0_28_6993">
<rect width="185.174" height="14" fill="white" transform="translate(0 0.124023)"/>
</clipPath>
</defs>
</svg>
