<svg width="79" height="81" viewBox="0 0 79 81" fill="none" xmlns="http://www.w3.org/2000/svg">
<path d="M31.9633 24.964C32.3383 24.319 33.1633 23.629 34.4083 23.629C35.6833 23.629 36.5233 24.379 36.5233 25.384C36.5233 26.419 35.7733 27.154 34.4533 27.154H33.7633V28.249H34.4983C35.8483 28.249 36.7633 28.999 36.7633 30.139C36.7633 31.249 35.8033 32.119 34.3483 32.119C33.0433 32.119 32.0833 31.384 31.7083 30.529L30.4483 30.964C30.9733 32.344 32.4433 33.274 34.3483 33.274C36.6133 33.274 38.1583 31.924 38.1583 30.094C38.1583 28.969 37.4083 27.964 36.2383 27.664V27.634C37.2883 27.274 37.9183 26.254 37.9183 25.294C37.9183 23.689 36.5533 22.474 34.4833 22.474C32.6383 22.474 31.2733 23.449 30.7483 24.574L31.9633 24.964ZM43.8039 22.474C41.2539 22.474 39.8439 24.889 39.8439 27.889C39.8439 30.859 41.2389 33.274 43.8039 33.274C46.3389 33.274 47.7639 30.844 47.7639 27.859C47.7639 24.874 46.3389 22.474 43.8039 22.474ZM43.8039 23.629C45.4689 23.629 46.3839 25.474 46.3839 27.859C46.3839 30.289 45.4689 32.119 43.8039 32.119C42.1239 32.119 41.2239 30.289 41.2239 27.889C41.2239 25.489 42.1389 23.629 43.8039 23.629Z" fill="black"/>
<path d="M19.4433 58.124H20.8083V53.819L24.4233 47.624H22.8633L20.1783 52.379H20.1483L17.4333 47.624H15.8283L19.4433 53.819V58.124ZM26.2648 58.124H33.0748V56.909H27.6148V53.339H32.0248V52.184H27.6148V48.839H32.9248V47.624H26.2648V58.124ZM41.4881 58.124H42.9731L39.4631 47.624H37.6031L34.0931 58.124H35.5181L36.3281 55.604H40.6631L41.4881 58.124ZM38.4731 48.914H38.5331L40.3481 54.509H36.6581L38.4731 48.914ZM44.7364 58.124H46.0864V53.939H47.8414C48.0364 53.939 48.4564 53.924 48.6664 53.909L51.2164 58.124H52.7764L50.0164 53.639C51.2464 53.249 52.1464 52.184 52.1464 50.714C52.1464 48.809 50.7214 47.624 48.6364 47.624H44.7364V58.124ZM46.0864 52.799V48.779H48.3814C49.9114 48.779 50.7364 49.529 50.7364 50.774C50.7364 52.034 49.8964 52.799 48.3364 52.799H46.0864ZM58.0155 58.274C60.3255 58.274 61.9755 56.954 61.9755 55.124C61.9755 53.684 61.0605 52.724 59.2905 52.379L57.1755 51.929C56.0655 51.704 55.5105 51.224 55.5105 50.309C55.5105 49.439 56.4105 48.659 57.8955 48.659C59.0955 48.659 59.9505 49.094 60.6405 49.679L61.7055 48.884C60.8655 48.044 59.5005 47.474 57.8955 47.474C55.6005 47.474 54.1005 48.794 54.1005 50.414C54.1005 52.109 55.2255 52.889 56.7855 53.204L58.6755 53.579C59.7705 53.804 60.5355 54.239 60.5355 55.274C60.5355 56.219 59.6655 57.089 57.9405 57.089C56.5905 57.089 55.5105 56.534 54.7905 55.619L53.7255 56.474C54.5355 57.539 56.0205 58.274 58.0155 58.274Z" fill="black"/>
<rect x="0.5" y="0.624023" width="77.7265" height="79" rx="38.8632" stroke="black"/>
</svg>
